<?xml version="1.0" encoding="UTF-8"?>
<svg width="142px" height="142px" viewBox="0 0 142 142" version="1.1" xmlns="http://www.w3.org/2000/svg" xmlns:xlink="http://www.w3.org/1999/xlink">
    <!-- Generator: sketchtool 52.3 (67297) - http://www.bohemiancoding.com/sketch -->
    <title>C140650C-BBDC-4213-BE24-E614D598D96E</title>
    <desc>Created with sketchtool.</desc>
    <g id="Page-1" stroke="none" stroke-width="1" fill="none" fill-rule="evenodd">
        <g id="الصفحة-الرئيسية-عرض-الشبكة-copy-31" transform="translate(-442.000000, -639.000000)">
            <g id="Group-3" transform="translate(446.000000, 643.000000)">
                <circle id="Oval" stroke="#DCDCDC" stroke-width="8" fill-rule="nonzero" cx="67" cy="67" r="67"></circle>
                <g id="Group-2" transform="translate(60.224719, 35.382022)" fill="#DCDCDC">
                    <path d="M7.29191452,49.3606521 C3.47768231,49.3606521 0.280458251,52.5578762 0.280458251,56.3721084 C0.280458251,60.1863406 3.47768231,63.3835647 7.29191452,63.3835647 C10.9659176,63.3835647 14.3033708,60.1863406 14.1350958,56.5403833 C14.3033708,52.5298304 11.1341926,49.3606521 7.29191452,49.3606521 Z" id="Path"></path>
                    <path d="M5.41284424,0.197944635 C2.07539106,1.15150269 1.42108547e-14,4.1804518 1.42108547e-14,7.85445488 C0.16827495,10.0700751 0.308504076,12.3137411 0.476779026,14.5293612 C0.953558052,22.9711546 1.43033708,31.244673 1.9071161,39.6864663 C2.07539106,42.5471405 4.29101124,44.6225315 7.15168539,44.6225315 C10.0123596,44.6225315 12.2560256,42.4069114 12.3962547,39.5181914 C12.3962547,37.7793502 12.3962547,36.1807382 12.5645296,34.4138512 C12.8730337,29.001007 13.2095836,23.5881627 13.5180877,18.1753185 C13.6863626,14.6695904 13.9948667,11.1638622 14.1631417,7.6581341 C14.1631417,6.39607198 13.9948667,5.27423897 13.5180877,4.15240597 C12.0877506,1.01127356 8.75029742,-0.587338467 5.41284424,0.197944635 Z" id="Path"></path>
                </g>
            </g>
        </g>
    </g>
</svg>