<?xml version="1.0" encoding="utf-8"?>
<!-- Svg Vector Icons : http://www.onlinewebfonts.com/icon -->
<!DOCTYPE svg PUBLIC "-//W3C//DTD SVG 1.1//EN" "http://www.w3.org/Graphics/SVG/1.1/DTD/svg11.dtd">
<svg version="1.1" xmlns="http://www.w3.org/2000/svg" xmlns:xlink="http://www.w3.org/1999/xlink" x="0px" y="0px" viewBox="0 0 1000 1000" enable-background="new 0 0 1000 1000" xml:space="preserve">
<metadata> Svg Vector Icons : http://www.onlinewebfonts.com/icon </metadata>
<g><path d="M714.4,668.5L714.4,668.5C714.4,668.4,714.4,668.4,714.4,668.5L714.4,668.5z M714.4,331.5L714.4,331.5C714.4,331.6,714.4,331.6,714.4,331.5C714.4,331.6,714.4,331.6,714.4,331.5z M683.8,331.6c-12.7,0-24.2,5.1-32.5,13.5L438.8,557.5L333.4,452.2c-8.3-8.3-19.8-13.5-32.5-13.5c-25.4,0-45.9,20.6-45.9,45.9c0,12.7,5.1,24.2,13.5,32.5L406.3,655c8.3,8.3,19.8,13.5,32.5,13.5s24.2-5.1,32.5-13.5l245-245c8.3-8.3,13.5-19.8,13.5-32.5C729.7,352.1,709.1,331.6,683.8,331.6z M500,10C229.4,10,10,229.4,10,500c0,270.6,219.4,490,490,490c270.6,0,490-219.4,490-490C990,229.4,770.6,10,500,10z M500,898.1c-219.9,0-398.1-178.3-398.1-398.1c0-219.9,178.3-398.1,398.1-398.1S898.1,280.1,898.1,500C898.1,719.9,719.9,898.1,500,898.1z"/></g>
</svg>