<?xml version="1.0" encoding="UTF-8"?>
<svg width="209px" height="51px" viewBox="0 0 209 51" version="1.1" xmlns="http://www.w3.org/2000/svg" xmlns:xlink="http://www.w3.org/1999/xlink">
    <!-- Generator: sketchtool 52.3 (67297) - http://www.bohemiancoding.com/sketch -->
    <title>0ED8EEEE-88BD-4918-9170-0FB0F11318AA</title>
    <desc>Created with sketchtool.</desc>
    <defs>
        <path d="M17.649134,0.75675506 C15.028938,1.64329661 12.4112288,5.67311159 8.88131153,8.13128986 C2.95885466,12.2560597 0,15.9533107 0,15.9533107 C0,15.9533107 15.5660894,18.0101492 19.6984935,22.4342045 C22.2033919,25.1160149 25.855389,31.0309509 28.2384335,34.0553089 C31.2133394,37.8302099 34.8779967,39.0397756 38.4775446,39.046875 L38.5331588,39.046875 C42.9054272,39.0404411 47.1759624,37.2695766 49.9865126,36.1784827 C60.3481558,32.1555453 66.801208,25.0976008 73.7844034,17.1823999 C79.0209522,11.2468311 85.4721958,5.92980043 85.5122109,5.8967437 L85.5122109,5.89652184 C79.5911104,6.23196999 71.5071614,13.6067267 65.1305222,22.4342045 C62.8625492,25.5739283 60.3603638,26.8447266 60.3603638,26.8447266 C60.3603638,26.8447266 61.9840262,23.7629076 64.3333857,20.1994365 C68.0909593,14.5005895 74.8089701,9.24900666 74.0118337,9.69582715 C69.2299194,10.0310534 65.9276586,14.3887734 62.6256238,19.7523942 C58.4581783,26.5214806 53.4024886,30.2562254 53.4024886,30.2562254 C53.4024886,30.2562254 58.4301451,23.418807 59.323589,21.5403417 C61.7145462,16.5121691 66.0415998,11.2601426 66.0415998,11.2601426 C66.0415998,11.2601426 61.6006049,12.2658215 54.8825942,23.4398834 C52.8827448,26.7666328 47.156294,32.0905411 44.6351183,33.3850781 C40.4330835,35.542418 38.1990216,35.635598 35.8672959,34.9491717 C29.0355699,32.9378139 27.8968359,26.0098778 23.342352,20.4228468 C17.8693299,13.7094466 5.65049002,13.9770064 5.65049002,13.9770064 C5.65049002,13.9770064 10.088772,12.4819104 12.6388851,9.58423295 C14.5578,7.40315439 15.4856072,6.80724583 16.0548611,6.34356419 C22.0896767,1.4269858 25.9171071,6.01277504 28.5800311,8.46673801 C29.4002271,9.22260565 33.4575746,14.4207209 33.4575746,14.4207209 C33.4575746,14.4207209 32.1949521,9.30491468 31.6544095,8.13128986 C28.6865119,1.68788991 24.7684259,0.0752096058 21.5012065,0.0754314631 C20.0389607,0.0754314631 18.7064814,0.398677468 17.649134,0.75675506" id="path-1"></path>
        <linearGradient x1="0.41362806%" y1="-10.4562423%" x2="112.509091%" y2="97.7072553%" id="linearGradient-3">
            <stop stop-color="#11AD64" offset="0%"></stop>
            <stop stop-color="#3A4387" offset="100%"></stop>
        </linearGradient>
        <path d="M32.573037,0 C32.573037,0 26.2663824,0.222903646 22.7117887,3.79046875 C20.7365338,5.77269531 18.2396895,9.47661458 17.5514466,10.256888 C15.7606035,12.2884766 16.7489139,13.2670833 14.3408606,16.8346484 C12.7262331,19.2266016 11.3593094,21.2942708 9.52475381,22.4090104 C8.25049129,23.1835286 13.7102179,24.4715885 14.4556057,25.9765755 C14.4556057,25.9765755 12.3205272,28.0599609 4.70864706,27.6489062 C2.64482898,27.5375651 0.453971678,25.234375 3.21809913,30.8822266 C5.04149891,34.6073958 3.42117974,33.7175521 0.523410675,37.4039844 C-0.887680828,39.1989453 0.523638344,45.4139062 9.63949891,43.3685937 C14.1113704,42.3654167 20.5612288,33.8671875 20.5612288,33.8671875 L18.0568715,32.5390625 C18.0568715,32.5390625 16.9781765,33.7808594 14.7996133,36.5679297 C11.7586405,40.4582292 1.15405338,44.037526 3.90611438,36.1221224 C4.44477887,34.5722005 9.10675381,35.4166667 5.28214488,30.2132943 C5.28214488,30.2132943 15.4304837,31.2722526 18.7555871,26.1436979 C18.7555871,26.1436979 24.62489,18.7283333 27.1836601,15.1625391 C30.6237364,10.3684505 37.6757789,3.84625 46.2759695,0.947838542 C46.2759695,0.947838542 35.3421732,0.692838542 26.0368922,10.5913542 C23.7351601,13.0397526 22.3675534,17.5035807 19.9597277,20.0677474 C17.3308355,22.8672135 13.7675904,22.1861068 13.7675904,22.1861068 C13.7675904,22.1861068 17.5796776,19.2308073 18.6982146,16.1657161 C19.9597277,12.7094922 21.7854041,10.2159375 24.3170817,7.46959635 C26.1183976,5.51548177 32.573037,0 32.573037,0 Z" id="path-4"></path>
        <linearGradient x1="-58.4994391%" y1="-0.990408104%" x2="146.953818%" y2="93.5242043%" id="linearGradient-6">
            <stop stop-color="#11AD64" offset="0%"></stop>
            <stop stop-color="#3A4387" offset="100%"></stop>
        </linearGradient>
        <polygon id="path-7" points="0.072636175 3.47727273 2.64176133 4.78125 5.44467688 1.30397727 2.87531817 0"></polygon>
        <linearGradient x1="-792.917918%" y1="-344.90939%" x2="731.941214%" y2="369.490745%" id="linearGradient-9">
            <stop stop-color="#11AD64" offset="0%"></stop>
            <stop stop-color="#3A4387" offset="100%"></stop>
        </linearGradient>
        <polygon id="path-10" points="0.0728697318 3.47727273 2.64199489 4.78125 5.44444333 1.30397727 2.87531817 0"></polygon>
        <linearGradient x1="-792.991219%" y1="-344.90939%" x2="732.000516%" y2="369.490745%" id="linearGradient-12">
            <stop stop-color="#11AD64" offset="0%"></stop>
            <stop stop-color="#3A4387" offset="100%"></stop>
        </linearGradient>
        <path d="M2.88102723,4.3828125 C1.04445894,5.36133306 0.0673076525,7.38157895 0.0673076525,7.38157895 L2.23175727,8.765625 L7.90226468,0.144171464 C7.90226468,0.144171464 4.17956715,3.69078947 2.88102723,4.3828125" id="path-13"></path>
        <linearGradient x1="-348.610125%" y1="-129.010683%" x2="337.012131%" y2="168.583205%" id="linearGradient-15">
            <stop stop-color="#11AD64" offset="0%"></stop>
            <stop stop-color="#3A4387" offset="100%"></stop>
        </linearGradient>
        <polygon id="path-16" points="3.36891964e-05 3.34173387e-05 103.857392 3.34173387e-05 103.857392 30.8294666 3.36891964e-05 30.8294666"></polygon>
    </defs>
    <g id="Page-1" stroke="none" stroke-width="1" fill="none" fill-rule="evenodd">
        <g id="New-Header" transform="translate(-1187.000000, -28.000000)">
            <g id="Group-13" transform="translate(1187.000000, 28.000000)">
                <g id="Group-16" transform="translate(123.318008, 0.000000)">
                    <g id="Group-3" transform="translate(0.000000, 11.953125)">
                        <mask id="mask-2" fill="white">
                            <use xlink:href="#path-1"></use>
                        </mask>
                        <g id="Clip-2"></g>
                        <path d="M17.649134,0.75675506 C15.028938,1.64329661 12.4112288,5.67311159 8.88131153,8.13128986 C2.95885466,12.2560597 0,15.9533107 0,15.9533107 C0,15.9533107 15.5660894,18.0101492 19.6984935,22.4342045 C22.2033919,25.1160149 25.855389,31.0309509 28.2384335,34.0553089 C31.2133394,37.8302099 34.8779967,39.0397756 38.4775446,39.046875 L38.5331588,39.046875 C42.9054272,39.0404411 47.1759624,37.2695766 49.9865126,36.1784827 C60.3481558,32.1555453 66.801208,25.0976008 73.7844034,17.1823999 C79.0209522,11.2468311 85.4721958,5.92980043 85.5122109,5.8967437 L85.5122109,5.89652184 C79.5911104,6.23196999 71.5071614,13.6067267 65.1305222,22.4342045 C62.8625492,25.5739283 60.3603638,26.8447266 60.3603638,26.8447266 C60.3603638,26.8447266 61.9840262,23.7629076 64.3333857,20.1994365 C68.0909593,14.5005895 74.8089701,9.24900666 74.0118337,9.69582715 C69.2299194,10.0310534 65.9276586,14.3887734 62.6256238,19.7523942 C58.4581783,26.5214806 53.4024886,30.2562254 53.4024886,30.2562254 C53.4024886,30.2562254 58.4301451,23.418807 59.323589,21.5403417 C61.7145462,16.5121691 66.0415998,11.2601426 66.0415998,11.2601426 C66.0415998,11.2601426 61.6006049,12.2658215 54.8825942,23.4398834 C52.8827448,26.7666328 47.156294,32.0905411 44.6351183,33.3850781 C40.4330835,35.542418 38.1990216,35.635598 35.8672959,34.9491717 C29.0355699,32.9378139 27.8968359,26.0098778 23.342352,20.4228468 C17.8693299,13.7094466 5.65049002,13.9770064 5.65049002,13.9770064 C5.65049002,13.9770064 10.088772,12.4819104 12.6388851,9.58423295 C14.5578,7.40315439 15.4856072,6.80724583 16.0548611,6.34356419 C22.0896767,1.4269858 25.9171071,6.01277504 28.5800311,8.46673801 C29.4002271,9.22260565 33.4575746,14.4207209 33.4575746,14.4207209 C33.4575746,14.4207209 32.1949521,9.30491468 31.6544095,8.13128986 C28.6865119,1.68788991 24.7684259,0.0752096058 21.5012065,0.0754314631 C20.0389607,0.0754314631 18.7064814,0.398677468 17.649134,0.75675506" id="Fill-1" fill="url(#linearGradient-3)" mask="url(#mask-2)"></path>
                    </g>
                    <g id="Group-6" transform="translate(32.030651, 0.000000)">
                        <mask id="mask-5" fill="white">
                            <use xlink:href="#path-4"></use>
                        </mask>
                        <g id="Clip-5"></g>
                        <path d="M32.573037,0 C32.573037,0 26.2663824,0.222903646 22.7117887,3.79046875 C20.7365338,5.77269531 18.2396895,9.47661458 17.5514466,10.256888 C15.7606035,12.2884766 16.7489139,13.2670833 14.3408606,16.8346484 C12.7262331,19.2266016 11.3593094,21.2942708 9.52475381,22.4090104 C8.25049129,23.1835286 13.7102179,24.4715885 14.4556057,25.9765755 C14.4556057,25.9765755 12.3205272,28.0599609 4.70864706,27.6489062 C2.64482898,27.5375651 0.453971678,25.234375 3.21809913,30.8822266 C5.04149891,34.6073958 3.42117974,33.7175521 0.523410675,37.4039844 C-0.887680828,39.1989453 0.523638344,45.4139062 9.63949891,43.3685937 C14.1113704,42.3654167 20.5612288,33.8671875 20.5612288,33.8671875 L18.0568715,32.5390625 C18.0568715,32.5390625 16.9781765,33.7808594 14.7996133,36.5679297 C11.7586405,40.4582292 1.15405338,44.037526 3.90611438,36.1221224 C4.44477887,34.5722005 9.10675381,35.4166667 5.28214488,30.2132943 C5.28214488,30.2132943 15.4304837,31.2722526 18.7555871,26.1436979 C18.7555871,26.1436979 24.62489,18.7283333 27.1836601,15.1625391 C30.6237364,10.3684505 37.6757789,3.84625 46.2759695,0.947838542 C46.2759695,0.947838542 35.3421732,0.692838542 26.0368922,10.5913542 C23.7351601,13.0397526 22.3675534,17.5035807 19.9597277,20.0677474 C17.3308355,22.8672135 13.7675904,22.1861068 13.7675904,22.1861068 C13.7675904,22.1861068 17.5796776,19.2308073 18.6982146,16.1657161 C19.9597277,12.7094922 21.7854041,10.2159375 24.3170817,7.46959635 C26.1183976,5.51548177 32.573037,0 32.573037,0 Z" id="Fill-4" fill="url(#linearGradient-6)" mask="url(#mask-5)"></path>
                    </g>
                    <g id="Group-9" transform="translate(50.448276, 27.890625)">
                        <mask id="mask-8" fill="white">
                            <use xlink:href="#path-7"></use>
                        </mask>
                        <g id="Clip-8"></g>
                        <polygon id="Fill-7" fill="url(#linearGradient-9)" mask="url(#mask-8)" points="0.072636175 3.47727273 2.64176133 4.78125 5.44467688 1.30397727 2.87531817 0"></polygon>
                    </g>
                    <g id="Group-12" transform="translate(53.651341, 23.109375)">
                        <mask id="mask-11" fill="white">
                            <use xlink:href="#path-10"></use>
                        </mask>
                        <g id="Clip-11"></g>
                        <polygon id="Fill-10" fill="url(#linearGradient-12)" mask="url(#mask-11)" points="0.0728697318 3.47727273 2.64199489 4.78125 5.44444333 1.30397727 2.87531817 0"></polygon>
                    </g>
                    <g id="Group-15" transform="translate(57.655172, 15.140625)">
                        <mask id="mask-14" fill="white">
                            <use xlink:href="#path-13"></use>
                        </mask>
                        <g id="Clip-14"></g>
                        <path d="M2.88102723,4.3828125 C1.04445894,5.36133306 0.0673076525,7.38157895 0.0673076525,7.38157895 L2.23175727,8.765625 L7.90226468,0.144171464 C7.90226468,0.144171464 4.17956715,3.69078947 2.88102723,4.3828125" id="Fill-13" fill="url(#linearGradient-15)" mask="url(#mask-14)"></path>
                    </g>
                </g>
                <g id="Group-21" transform="translate(0.000000, 15.140625)">
                    <mask id="mask-17" fill="white">
                        <use xlink:href="#path-16"></use>
                    </mask>
                    <g id="Clip-2"></g>
                    <path d="M74.1468892,13.6649847 L75.7720561,13.6649847 L75.7720561,12.0288718 L74.1468892,12.0288718 L74.1468892,13.6649847 Z M71.7579883,13.6649847 L73.3828183,13.6649847 L73.3828183,12.0288718 L71.7579883,12.0288718 L71.7579883,13.6649847 Z M79.6159934,7.6983189 C79.6159934,8.14343785 79.5678178,8.42013342 79.3734312,8.42013342 L78.7552344,8.42013342 L78.7552344,8.60058705 C78.7552344,10.2604263 77.615192,11.4032992 75.7477998,11.4032992 L72.3158814,11.4032992 C70.31508,11.4032992 68.7990662,10.2006092 68.7990662,8.56449632 C68.7990662,8.13140761 68.9082192,7.20541316 69.0780127,6.14708604 L70.6789234,6.37532646 C70.520921,7.37383654 70.424233,8.22764955 70.424233,8.54077001 C70.424233,9.38255277 71.1637109,9.96000439 72.3158814,9.96000439 L75.7477998,9.96000439 C76.6813275,9.96000439 77.1300676,9.51488543 77.1300676,8.5885568 L77.1300676,8.42013342 L76.8996335,8.42013342 C76.2204593,8.42013342 75.6629031,8.32389148 75.0076482,7.86674229 L75.9418496,6.68811275 C76.305356,6.94074783 76.4266372,6.97683856 76.8996335,6.97683856 L79.3734312,6.97683856 C79.5678178,6.97683856 79.6159934,7.25353412 79.6159934,7.6983189 Z" id="Fill-1" fill="#000000" mask="url(#mask-17)"></path>
                    <path d="M85.5109963,6.97687198 L85.5109963,8.42016683 L79.3748461,8.42016683 C79.1807963,8.42016683 79.1322839,8.14347127 79.1322839,7.69835232 C79.1322839,7.25356754 79.1807963,6.97687198 79.3748461,6.97687198 L80.9393724,6.97687198 C80.7574507,6.54378327 80.6604258,6.07460383 80.6604258,5.59339415 C80.6604258,3.75343548 82.0305655,2.40571421 83.825189,2.40571421 C84.2981853,2.40571421 84.8682065,2.50195615 85.365459,2.68240978 L84.8075659,4.04182712 C84.4437226,3.90949446 84.1408567,3.84934325 83.8615733,3.84934325 C82.9159175,3.84934325 82.2852558,4.54709728 82.2852558,5.58136391 C82.2852558,6.11069456 82.4550493,6.59190423 82.7582521,6.97687198 L85.5109963,6.97687198 Z" id="Fill-3" fill="#000000" mask="url(#mask-17)"></path>
                    <path d="M91.2477275,7.69838574 C91.2477275,8.14350469 91.1988781,8.42020025 91.0051652,8.42020025 L87.5732468,8.42020025 L87.5732468,3.34173387e-05 L89.1980768,3.34173387e-05 L89.1980768,6.97690539 L91.0051652,6.97690539 C91.1988781,6.97690539 91.2477275,7.25360096 91.2477275,7.69838574" id="Fill-4" fill="#000000" mask="url(#mask-17)"></path>
                    <path d="M101.252475,5.0883245 L101.252475,8.42036734 L98.0631193,8.42036734 C97.6143792,8.42036734 97.1777672,8.28803468 96.7778764,8.03506542 C96.3897769,8.29973075 95.8803962,8.42036734 95.2254783,8.42036734 L91.0055695,8.42036734 C90.8115197,8.42036734 90.7630073,8.14367177 90.7630073,7.69855282 C90.7630073,7.25343387 90.8115197,6.97673831 91.0055695,6.97673831 L92.6182713,6.97673831 L92.6182713,3.00709264 L94.2431013,3.00709264 L94.2431013,6.97673831 L95.2254783,6.97673831 C95.9535018,6.97673831 96.1108303,6.78425444 96.1108303,5.41314103 L96.1108303,3.00709264 L97.7359972,3.00709264 L97.7359972,5.41314103 C97.7359972,5.94247167 97.6874847,6.38759063 97.5904598,6.77222419 C97.7963008,6.94064758 97.9179188,6.97673831 98.0631193,6.97673831 L99.6276456,6.97673831 L99.6276456,5.0883245 C99.6276456,4.77553821 99.4942363,3.70484667 99.3123147,2.64651956 L100.912888,2.40591472 C101.058426,3.27175796 101.252475,4.60744899 101.252475,5.0883245" id="Fill-5" fill="#000000" mask="url(#mask-17)"></path>
                    <path d="M0.70009519,28.6521265 C0.70009519,29.6523074 1.32907249,30.1819722 2.68169372,30.1819722 C3.07316218,30.1819722 3.60713595,30.1348538 4.41365531,30.0289208 L4.53224128,30.594008 C3.90360088,30.7350292 3.27496047,30.8296003 2.68169372,30.8296003 C0.996897011,30.8296003 3.36891964e-05,30.0646774 3.36891964e-05,28.6521265 C3.36891964e-05,27.7458482 0.415421481,27.1105846 1.16298475,26.7690594 C0.522216233,26.0980393 0.190040757,25.274636 0.190040757,24.3683578 C0.190040757,22.5678316 1.53087077,21.2498518 3.28675169,21.2498518 C3.74930436,21.2498518 4.30686056,21.3437545 4.79333255,21.520198 L4.55582372,22.1320695 C4.15256404,21.9793523 3.70180259,21.8968114 3.29854291,21.8968114 C1.91054802,21.8968114 0.889765366,22.9327489 0.889765366,24.3683578 C0.889765366,25.2158215 1.24586017,25.9690483 1.91054802,26.5454974 C2.14771996,26.5104092 2.40847434,26.4870171 2.69348494,26.4870171 L4.99513084,26.4870171 L4.99513084,27.1339768 L2.69348494,27.1339768 C1.32907249,27.1339768 0.70009519,27.6519455 0.70009519,28.6521265" id="Fill-6" fill="#666666" mask="url(#mask-17)"></path>
                    <path d="M17.558506,23.8624193 L17.558506,27.1339768 L15.0314793,27.1339768 C14.6282197,27.1339768 14.2367512,27.0163477 13.857074,26.7690594 C13.5720633,27.0280438 13.1688037,27.1339768 12.6230387,27.1339768 L10.4635612,27.1339768 L10.4635612,23.0032595 L7.98403634,23.0032595 L7.98403634,27.6285534 C7.98403634,29.0758583 7.09396777,30.0406169 5.81276764,30.0406169 C5.61096935,30.0406169 5.36200619,30.0172247 5.14841668,29.9938326 L5.23129211,29.3465388 C5.45667283,29.3699309 5.65847112,29.3936572 5.81276764,29.3936572 C6.70249931,29.3936572 7.28397484,28.710941 7.28397484,27.6285534 L7.28397484,21.2498518 L7.98403634,21.2498518 L7.98403634,22.3559657 L10.4635612,22.3559657 L10.4635612,21.2498518 L11.1636227,21.2498518 L11.1636227,26.4870171 L12.6230387,26.4870171 C13.4531405,26.4870171 13.6670669,26.2276985 13.6670669,24.8392081 L13.6670669,21.8379969 L14.3667915,21.8379969 L14.3667915,24.8392081 C14.3667915,25.4156572 14.3196266,25.8627812 14.2007038,26.2043064 C14.4857144,26.4041421 14.7464687,26.4870171 15.0314793,26.4870171 L16.8584445,26.4870171 L16.8584445,23.8624193 C16.8584445,23.4149611 16.716276,22.3559657 16.5023497,21.3671466 L17.1906199,21.2498518 C17.3567077,22.0615589 17.558506,23.27394 17.558506,23.8624193" id="Fill-7" fill="#666666" mask="url(#mask-17)"></path>
                    <polygon id="Fill-8" fill="#666666" mask="url(#mask-17)" points="19.6448442 27.1338431 20.3449057 27.1338431 20.3449057 18.6251203 19.6448442 18.6251203"></polygon>
                    <path d="M26.2291955,26.48685 L26.2291955,21.8969785 L24.615483,21.8969785 C23.096774,21.8969785 22.6699319,22.3561328 22.6699319,24.1917472 C22.6699319,26.0276958 23.096774,26.48685 24.615483,26.48685 L26.2291955,26.48685 Z M26.929257,21.2496847 L26.929257,27.5224533 C26.929257,29.040603 26.1224007,30.0290879 24.5326076,30.0290879 C24.0222162,30.0290879 23.3699934,29.934851 22.8003091,29.8055259 L22.9428144,29.1816242 C23.5596636,29.3112835 24.1293479,29.3817941 24.5326076,29.3817941 C25.64772,29.3817941 26.2291955,28.7699226 26.2291955,27.5224533 L26.2291955,27.1341439 L24.615483,27.1341439 C22.5395547,27.1341439 21.9695335,26.2158354 21.9695335,24.1917472 C21.9695335,22.167659 22.5395547,21.2496847 24.615483,21.2496847 L26.929257,21.2496847 Z" id="Fill-9" fill="#666666" mask="url(#mask-17)"></path>
                    <path d="M38.7685502,26.816111 C38.7685502,27.0042507 38.7331766,27.1339099 38.5313783,27.1339099 L37.2855518,27.1339099 L37.2855518,27.5105233 C37.2855518,29.1583323 35.8497182,30.0529145 34.1770496,30.0529145 C32.3497476,30.0529145 30.9381703,28.9815546 30.9381703,27.4400128 C30.9381703,26.7927189 31.1989247,25.0627033 31.400723,23.8623525 L32.1007845,23.9682854 C31.8157739,25.6040642 31.6378949,26.9691624 31.6378949,27.4400128 C31.6378949,28.581549 32.68226,29.4052864 34.1770496,29.4052864 C35.6597112,29.4052864 36.5854903,28.6520596 36.5854903,27.5105233 L36.5854903,18.6251871 L37.2855518,18.6251871 L37.2855518,26.4869503 L38.5313783,26.4869503 C38.7331766,26.4869503 38.7685502,26.6279714 38.7685502,26.816111" id="Fill-10" fill="#666666" mask="url(#mask-17)"></path>
                    <path d="M44.1775865,27.1339768 L40.4165246,27.1339768 C40.3572317,27.4166874 40.2976018,27.8283891 40.2976018,28.1458538 C40.2976018,28.487379 40.3572317,28.9348371 40.4640264,29.2994203 C40.8672861,29.3582348 41.4366335,29.3936572 41.9823985,29.3936572 C43.6671952,29.3936572 44.1775865,29.0758583 44.1775865,28.2283946 L44.1775865,27.1339768 Z M40.4758176,26.4866829 L44.1775865,26.4866829 L44.1775865,24.2507288 C44.1775865,22.5207132 43.596111,21.8968114 41.9823985,21.8968114 C41.4605528,21.8968114 40.9147879,21.955626 40.5229825,22.0498629 C40.4047334,22.6500383 40.2976018,23.5563165 40.2976018,24.4392026 C40.2976018,25.2509097 40.3929422,26.0275287 40.4758176,26.4866829 Z M46.3603096,26.8161779 C46.3603096,27.0043175 46.3249359,27.1339768 46.1231376,27.1339768 L44.8773111,27.1339768 L44.8773111,28.2283946 C44.8773111,29.5584047 43.8925759,30.0406169 41.9470248,30.0406169 C41.045165,30.0406169 40.2504369,29.9350181 39.9179245,29.8524773 C39.7878842,29.5229823 39.5978772,28.8402661 39.5978772,28.1224616 C39.5978772,27.7575443 39.6453789,27.4166874 39.7046719,27.1339768 L38.5299296,27.1339768 C38.316677,27.1339768 38.2927577,27.0043175 38.2927577,26.8161779 C38.2927577,26.6277041 38.316677,26.4866829 38.5299296,26.4866829 L39.763628,26.4866829 C39.6807526,25.9924405 39.5978772,25.2392137 39.5978772,24.4392026 C39.5978772,23.2502137 39.7878842,22.1203734 39.9179245,21.5673165 C40.2504369,21.4262953 41.045165,21.2498518 41.9588161,21.2498518 C43.8925759,21.2498518 44.8773111,22.0498629 44.8773111,24.2507288 L44.8773111,26.4866829 L46.1231376,26.4866829 C46.3249359,26.4866829 46.3603096,26.6277041 46.3603096,26.8161779 Z" id="Fill-11" fill="#666666" mask="url(#mask-17)"></path>
                    <path d="M54.6761845,23.8624193 L54.6761845,27.1339768 L52.1491579,27.1339768 C51.7458982,27.1339768 51.3544297,27.0163477 50.9629613,26.7690594 C50.6897419,27.0280438 50.2864822,27.1339768 49.7407172,27.1339768 L46.1218237,27.1339768 C45.9085711,27.1339768 45.8846518,27.0043175 45.8846518,26.8161779 C45.8846518,26.6277041 45.9085711,26.4870171 46.1218237,26.4870171 L47.5812397,26.4870171 L47.5812397,21.8379969 L48.2813012,21.8379969 L48.2813012,26.4870171 L49.7407172,26.4870171 C50.570819,26.4870171 50.7726173,26.2276985 50.7726173,24.8392081 L50.7726173,21.8379969 L51.4726788,21.8379969 L51.4726788,24.8392081 C51.4726788,25.4156572 51.4255139,25.8627812 51.3065911,26.1926103 C51.5916017,26.4041421 51.8641473,26.4870171 52.1491579,26.4870171 L53.976123,26.4870171 L53.976123,23.8624193 C53.976123,23.4149611 53.8221634,22.3559657 53.6203651,21.3671466 L54.3082985,21.2498518 C54.4743862,22.0615589 54.6761845,23.27394 54.6761845,23.8624193" id="Fill-12" fill="#666666" mask="url(#mask-17)"></path>
                    <polygon id="Fill-13" fill="#666666" mask="url(#mask-17)" points="56.7511358 27.1338431 57.4511973 27.1338431 57.4511973 18.6251203 56.7511358 18.6251203"></polygon>
                    <path d="M65.8977526,21.4027695 L66.5974772,21.4027695 L66.5974772,20.5198834 L65.8977526,20.5198834 L65.8977526,21.4027695 Z M64.5094208,21.4027695 L65.2094823,21.4027695 L65.2094823,20.5198834 L64.5094208,20.5198834 L64.5094208,21.4027695 Z M69.4209688,21.2497181 L69.4209688,27.1338431 L65.2094823,27.1338431 C62.8485434,27.1338431 61.6855924,26.3455281 61.6855924,24.6272085 C61.6855924,23.897708 61.8991819,23.0031259 61.9941854,22.5209137 L62.6824557,22.6499046 C62.5871153,23.1327851 62.3856539,23.9682186 62.3856539,24.6272085 C62.3856539,25.9217962 63.180382,26.4868834 65.2094823,26.4868834 L68.7212442,26.4868834 L68.7212442,21.2497181 L69.4209688,21.2497181 Z" id="Fill-14" fill="#666666" mask="url(#mask-17)"></path>
                    <path d="M78.3303463,26.816111 C78.3303463,27.0042507 78.2946357,27.1339099 78.0928374,27.1339099 L70.903226,27.1339099 L70.903226,26.4869503 L72.8487771,26.4869503 L72.8487771,20.3201146 L73.5488386,20.3201146 L73.5488386,26.4869503 L76.1472863,26.4869503 L76.1472863,18.6251871 L76.8473478,18.6251871 L76.8473478,26.4869503 L78.0928374,26.4869503 C78.2946357,26.4869503 78.3303463,26.6279714 78.3303463,26.816111" id="Fill-15" fill="#666666" mask="url(#mask-17)"></path>
                    <path d="M86.6460527,23.8624193 L86.6460527,27.1339768 L84.1190261,27.1339768 C83.7157664,27.1339768 83.324298,27.0163477 82.9328295,26.7690594 C82.6596101,27.0280438 82.2563505,27.1339768 81.7105855,27.1339768 L78.091692,27.1339768 C77.8784394,27.1339768 77.8545201,27.0043175 77.8545201,26.8161779 C77.8545201,26.6277041 77.8784394,26.4870171 78.091692,26.4870171 L79.551108,26.4870171 L79.551108,21.8379969 L80.2511695,21.8379969 L80.2511695,26.4870171 L81.7105855,26.4870171 C82.5406873,26.4870171 82.7424856,26.2276985 82.7424856,24.8392081 L82.7424856,21.8379969 L83.4425471,21.8379969 L83.4425471,24.8392081 C83.4425471,25.4156572 83.3953822,25.8627812 83.2764593,26.1926103 C83.5614699,26.4041421 83.8340155,26.4870171 84.1190261,26.4870171 L85.9459912,26.4870171 L85.9459912,23.8624193 C85.9459912,23.4149611 85.7920316,22.3559657 85.5902333,21.3671466 L86.2781667,21.2498518 C86.4442545,22.0615589 86.6460527,23.27394 86.6460527,23.8624193" id="Fill-16" fill="#666666" mask="url(#mask-17)"></path>
                    <polygon id="Fill-17" fill="#666666" mask="url(#mask-17)" points="88.7208356 27.1338431 89.4208971 27.1338431 89.4208971 18.6251203 88.7208356 18.6251203"></polygon>
                    <path d="M94.2609903,26.816111 C94.2609903,27.0042507 94.2256166,27.1339099 94.0238183,27.1339099 L92.7783287,27.1339099 L92.7783287,27.6284865 C92.7783287,29.0757915 91.8882602,30.0405501 90.6067231,30.0405501 C90.4052617,30.0405501 90.1559617,30.0171579 89.9427091,29.9937658 L90.0255845,29.3464719 C90.2509652,29.3701982 90.4524266,29.3935904 90.6067231,29.3935904 C91.4967917,29.3935904 92.0782672,28.7108741 92.0782672,27.6284865 L92.0782672,21.2497849 L92.7783287,21.2497849 L92.7783287,26.4869503 L94.0238183,26.4869503 C94.2256166,26.4869503 94.2609903,26.6279714 94.2609903,26.816111" id="Fill-18" fill="#666666" mask="url(#mask-17)"></path>
                    <path d="M99.8841888,26.48685 L99.8841888,24.2508959 C99.8841888,22.50885 99.3027133,21.8969785 97.6654183,21.8969785 C97.167492,21.8969785 96.6213901,21.9554589 96.2299216,22.0500299 C96.1113357,22.6502053 96.004204,23.5561494 96.004204,24.4273394 C96.004204,25.2510768 96.0995445,26.0276958 96.1824199,26.48685 L99.8841888,26.48685 Z M102.066912,26.8160108 C102.066912,27.0044846 102.031538,27.1341439 101.82974,27.1341439 L94.0232793,27.1341439 C93.8096898,27.1341439 93.7857704,27.0044846 93.7857704,26.8160108 C93.7857704,26.6278712 93.8096898,26.48685 94.0232793,26.48685 L95.4705672,26.48685 C95.3873548,25.9926076 95.3044794,25.2393807 95.3044794,24.4273394 C95.3044794,23.2620768 95.4944865,22.1205405 95.6245268,21.5671494 C95.9570392,21.4261282 96.7635585,21.2496847 97.6654183,21.2496847 C99.6109694,21.2496847 100.58425,22.0500299 100.58425,24.2508959 L100.58425,26.48685 L101.82974,26.48685 C102.031538,26.48685 102.066912,26.6278712 102.066912,26.8160108 Z" id="Fill-19" fill="#666666" mask="url(#mask-17)"></path>
                    <path d="M103.857459,18.6252874 L103.857459,27.1340102 L101.828696,27.1340102 C101.615106,27.1340102 101.591187,27.0043509 101.591187,26.8162113 C101.591187,26.6277375 101.615106,26.4867163 101.828696,26.4867163 L103.157397,26.4867163 L103.157397,18.6252874 L103.857459,18.6252874 Z" id="Fill-20" fill="#666666" mask="url(#mask-17)"></path>
                </g>
            </g>
        </g>
    </g>
</svg>